<svg xmlns="http://www.w3.org/2000/svg" width="19.896" height="20" viewBox="0 0 19.896 20">
  <g id="patient" transform="translate(0 0.104)">
    <path id="Path_6420" data-name="Path 6420" d="M13.559,22.632a.829.829,0,0,1-.69-.369l-1.412-2.118H9.829a.829.829,0,0,1,0-1.658H11.9a.83.83,0,0,1,.69.369l.865,1.3,1.848-3.7a.83.83,0,0,1,.71-.458.818.818,0,0,1,.743.4L19,20.145h1.6a.829.829,0,0,1,0,1.658H18.533a.828.828,0,0,1-.71-.4l-1.71-2.85L14.3,22.174a.83.83,0,0,1-.691.457Z" transform="translate(-1.539 -2.736)" fill="#878787"/>
    <ellipse id="Ellipse_36" data-name="Ellipse 36" cx="4.5" cy="4" rx="4.5" ry="4" transform="translate(3 -0.104)" fill="#878787"/>
    <path id="Path_6421" data-name="Path 6421" d="M5.8,18.632A2.49,2.49,0,0,1,8.29,16.145h2.072a2.485,2.485,0,0,1,1.209.313l.712-1.425a2.473,2.473,0,0,1,1.835-1.321A4.132,4.132,0,0,0,10.777,12H4.145A4.145,4.145,0,0,0,0,16.145v2.694a.622.622,0,0,0,.622.622H5.955A2.459,2.459,0,0,1,5.8,18.632Z" transform="translate(0 -2.052)" fill="#878787"/>
  </g>
</svg>
