<svg xmlns="http://www.w3.org/2000/svg" width="14.795" height="17.251" viewBox="0 0 14.795 17.251">
  <g id="profile" opacity="0.66">
    <path id="Subtraction_4" data-name="Subtraction 4" d="M14.795,8.6H0V5.91A7.313,7.313,0,0,1,.8,2.6,7.529,7.529,0,0,1,2.935.047,6.02,6.02,0,0,0,7.369,1.99,6.012,6.012,0,0,0,11.845,0a7.371,7.371,0,0,1,2.147,2.513,7.1,7.1,0,0,1,.8,3.3V8.6Z" transform="translate(0 8.647)" fill="#4a4a4a"/>
    <path id="Path_2078" data-name="Path 2078" d="M4.608,0A4.548,4.548,0,0,1,9.216,4.485,4.548,4.548,0,0,1,4.608,8.97,4.548,4.548,0,0,1,0,4.485,4.548,4.548,0,0,1,4.608,0Z" transform="translate(2.762 0)" fill="#4a4a4a"/>
  </g>
</svg>
