<svg xmlns="http://www.w3.org/2000/svg" width="178.272" height="80.835" viewBox="0 0 178.272 80.835">
  <g id="header" transform="translate(0.003 -0.035)">
    <path id="Path_2141" data-name="Path 2141" d="M208.738,287.282c-.413,10.6-3.862,21.037-7.352,31.194a12.591,12.591,0,0,1-1.755,3.717,4.817,4.817,0,0,1-3.6,2,4.544,4.544,0,0,1-4.052-3.065,8.926,8.926,0,0,1,.041-5.18c1.367-5.465,4.267-10.409,5.89-15.783,1.029-3.416,4.729-13.358-.665-14.99a5.029,5.029,0,0,0-4.093.781c-2.891,1.875-4.226,5.068-5.783,7.881-1.743,3.147-4.614,8.162-8.629,4.862-4.242-3.478-4.713-9.649-9.447-12.735a5.048,5.048,0,0,0-4.093-.781c-5.395,1.652-1.694,11.566-.665,14.986,1.623,5.37,4.523,10.326,5.89,15.787a8.982,8.982,0,0,1,.041,5.176,4.535,4.535,0,0,1-4.052,3.069,4.729,4.729,0,0,1-3.6-2,12.889,12.889,0,0,1-1.755-3.717c-3.49-10.157-6.919-20.595-7.352-31.194a19.784,19.784,0,0,1,.078-3.631c.207-2.829.739-5.82,2.73-7.939,3.205-3.408,7.881-3.759,12.1-1.875a18.616,18.616,0,0,1,6.609,5.184c.826.979,1.681,1.987,2.421,3.028s1.367,2.367,2.639,3.019a2.114,2.114,0,0,0,.876.248,1.974,1.974,0,0,0,.892-.2c1.239-.558,1.817-1.751,2.528-2.767.772-1.1,1.652-2.16,2.511-3.189a18.745,18.745,0,0,1,6.733-5.328c4.217-1.884,8.893-1.532,12.1,1.875,1.991,2.119,2.524,5.109,2.73,7.939A19.779,19.779,0,0,1,208.738,287.282Z" transform="translate(-109.763 -271.487)" fill="#c7c8c9"/>
    <rect id="Rectangle_1582" data-name="Rectangle 1582" width="9.36" height="33.833" rx="4.68" transform="translate(104.885 0.97)" fill="#c7c8c9"/>
    <rect id="Rectangle_1583" data-name="Rectangle 1583" width="9.36" height="51.446" rx="4.68" transform="translate(121.119 0.97)" fill="#c7c8c9"/>
    <rect id="Rectangle_1584" data-name="Rectangle 1584" width="9.36" height="15.804" rx="4.68" transform="translate(104.885 36.613)" fill="#c7c8c9"/>
    <rect id="Rectangle_1585" data-name="Rectangle 1585" width="9.36" height="15.804" rx="4.68" transform="translate(66.835 36.613)" fill="#c7c8c9"/>
    <path id="Path_2142" data-name="Path 2142" d="M256.14,416.085a1.429,1.429,0,0,1-1.917,0l-2.445-2.255s-21.1,41.38-46.787.277l-2.557,2.375a1.429,1.429,0,0,1-1.917,0,1.19,1.19,0,0,1,0-1.772l5.465-5.056a1.442,1.442,0,0,1,1.9,0,1.19,1.19,0,0,1,0,1.772l-2.243,2.086c25.688,23.759,45.316-.434,45.316-.434l-2.2-2.036a1.177,1.177,0,0,1,0-1.764,1.433,1.433,0,0,1,1.917,0l5.465,5.039a1.19,1.19,0,0,1,0,1.768Z" transform="translate(-137.033 -351.434)" fill="#c7c8c9"/>
    <path id="Path_2143" data-name="Path 2143" d="M271.436,441.2s-7.162,8.067-22.916,5.465C248.508,446.665,258.962,457.028,271.436,441.2Z" transform="translate(-165.44 -370.386)" fill="#d2d2d2" opacity="0.24"/>
    <path id="Path_2144" data-name="Path 2144" d="M87.635,306.809a17.034,17.034,0,0,1-2.239,8.943,14.02,14.02,0,0,1-6.609,5.642,26.41,26.41,0,0,1-10.636,1.917A23.368,23.368,0,0,1,57.9,321.245a14.988,14.988,0,0,1-6.3-5.213,11.4,11.4,0,0,1-2.032-6.266,5.209,5.209,0,0,1,1.3-3.561,4.209,4.209,0,0,1,3.3-1.479,3.56,3.56,0,0,1,2.681.971,10.7,10.7,0,0,1,1.793,2.726,13.247,13.247,0,0,0,4.085,5.039,11.121,11.121,0,0,0,6.485,1.652,8.556,8.556,0,0,0,5.473-1.685,4.882,4.882,0,0,0,2.135-3.862,5.47,5.47,0,0,0-2.218-4.853,25.257,25.257,0,0,0-7.307-2.9,55.5,55.5,0,0,1-9.335-3.383,15.642,15.642,0,0,1-5.741-4.7,11.652,11.652,0,0,1-2.156-7.167,13.864,13.864,0,0,1,2-7.168,14.155,14.155,0,0,1,5.873-5.368A19.956,19.956,0,0,1,67.3,272a27.294,27.294,0,0,1,7.745,1.016,18.176,18.176,0,0,1,5.737,2.726,12.668,12.668,0,0,1,3.494,3.792,8.108,8.108,0,0,1,1.2,4.069,5.056,5.056,0,0,1-1.28,3.561,4.737,4.737,0,0,1-3.643,1.384,4.13,4.13,0,0,1-2.891-1.107,21,21,0,0,1-2.743-3.329,10.59,10.59,0,0,0-2.97-2.957,8.424,8.424,0,0,0-4.634-1.111A8.261,8.261,0,0,0,62.3,281.5a4.353,4.353,0,0,0-2,3.627,4.13,4.13,0,0,0,1.466,3.259,11.536,11.536,0,0,0,3.945,2.1q2.478.826,6.832,2.036a33.712,33.712,0,0,1,8.439,3.42,14.63,14.63,0,0,1,4.957,4.692A11.417,11.417,0,0,1,87.635,306.809Z" transform="translate(-48.665 -271.072)" fill="#c7c8c9"/>
    <path id="Path_2145" data-name="Path 2145" d="M405.487,300.8c-6.844.529-17.01.413-17.014.045a18.411,18.411,0,0,0,1.545,7.584,11.528,11.528,0,0,0,4,4.957,9.683,9.683,0,0,0,5.5,1.652,12.075,12.075,0,0,0,3.689-.533,11.368,11.368,0,0,0,3.234-1.652,24.754,24.754,0,0,0,2.891-2.425q1.318-1.293,3.42-3.515a3.441,3.441,0,0,1,2.478-.826,3.825,3.825,0,0,1,2.8,1.062,4.064,4.064,0,0,1,1.07,3.007,8.921,8.921,0,0,1-1.194,4,15.371,15.371,0,0,1-3.61,4.391,19.914,19.914,0,0,1-6.055,3.49,23.5,23.5,0,0,1-8.389,1.384q-10.843,0-16.861-6.931t-6.018-18.815a34.782,34.782,0,0,1,1.487-10.376,23.542,23.542,0,0,1,4.3-8.224,18.843,18.843,0,0,1,7.022-5.246,22.718,22.718,0,0,1,9.215-1.83,20.01,20.01,0,0,1,11.314,3.119c6.229,4.131,10.595,13.011,7.708,19.984a8.629,8.629,0,0,1-6.563,5.171C410.948,300.35,408.544,300.56,405.487,300.8Zm-14.911-7.154c4.007,0,12.392-.083,16.258-.05,1.239,0,1.859-1.9,1.859-1.9a20.814,20.814,0,0,0-.62-3.061A12.392,12.392,0,0,0,405.764,284a8.821,8.821,0,0,0-7.113-3.214,8.571,8.571,0,0,0-6.9,3.259,15.021,15.021,0,0,0-3.015,7.666,1.76,1.76,0,0,0,1.826,1.937Z" transform="translate(-240.837 -271.073)" fill="#c7c8c9"/>
    <path id="Path_2146" data-name="Path 2146" d="M206.884,284.5c-.434,10.6-3.862,21.037-7.352,31.194a12.591,12.591,0,0,1-1.755,3.718,4.817,4.817,0,0,1-3.6,2,4.544,4.544,0,0,1-4.052-3.065,8.926,8.926,0,0,1,.041-5.18c1.367-5.465,4.267-10.4,5.89-15.783,1.028-3.416,4.73-13.358-.665-14.99a5.029,5.029,0,0,0-4.093.781c-2.891,1.875-4.23,5.068-5.783,7.881-1.743,3.148-4.614,8.162-8.629,4.866-4.238-3.482-4.713-9.649-9.442-12.739a5.048,5.048,0,0,0-4.093-.781c-5.395,1.632-1.694,11.566-.665,14.986,1.623,5.37,4.544,10.326,5.89,15.787a8.982,8.982,0,0,1,.041,5.176,4.535,4.535,0,0,1-4.052,3.069,4.729,4.729,0,0,1-3.6-2,12.889,12.889,0,0,1-1.755-3.717c-3.49-10.157-6.919-20.595-7.352-31.194a19.779,19.779,0,0,1,.078-3.631c.207-2.829.739-5.82,2.73-7.939,3.205-3.408,7.881-3.759,12.1-1.875a18.691,18.691,0,0,1,6.609,5.184c.826.979,1.677,1.987,2.416,3.028s1.367,2.367,2.639,3.019a2.115,2.115,0,0,0,.876.248,1.961,1.961,0,0,0,.892-.2c1.239-.558,1.817-1.751,2.532-2.767.768-1.1,1.652-2.16,2.507-3.189a18.724,18.724,0,0,1,6.737-5.328c4.217-1.883,8.893-1.532,12.1,1.875,1.991,2.119,2.524,5.109,2.73,7.939A19.78,19.78,0,0,1,206.884,284.5Z" transform="translate(-108.677 -269.855)" fill="#00b7f1"/>
    <rect id="Rectangle_1586" data-name="Rectangle 1586" width="9.36" height="33.833" rx="4.68" transform="translate(103.981 0.066)" fill="#00b7f1"/>
    <rect id="Rectangle_1587" data-name="Rectangle 1587" width="9.36" height="51.446" rx="4.68" transform="translate(120.214 0.066)" fill="#00b7f1"/>
    <rect id="Rectangle_1588" data-name="Rectangle 1588" width="9.36" height="15.804" rx="4.68" transform="translate(103.981 35.708)" fill="#00b7f1"/>
    <rect id="Rectangle_1589" data-name="Rectangle 1589" width="9.36" height="15.804" rx="4.68" transform="translate(65.93 35.708)" fill="#00b7f1"/>
    <path id="Path_2147" data-name="Path 2147" d="M253.955,413.877a1.437,1.437,0,0,1-1.917,0l-2.441-2.255s-21.1,41.363-46.787.273l-2.557,2.379a1.438,1.438,0,0,1-1.917,0,1.194,1.194,0,0,1,0-1.776l5.465-5.052a1.433,1.433,0,0,1,1.9,0,1.19,1.19,0,0,1,0,1.772l-2.243,2.086c25.684,23.759,45.308-.446,45.308-.446l-2.2-2.036a1.177,1.177,0,0,1,0-1.764,1.433,1.433,0,0,1,1.917,0l5.465,5.056a1.19,1.19,0,0,1,0,1.764Z" transform="translate(-135.753 -350.131)" fill="#00b7f1"/>
    <path id="Path_2148" data-name="Path 2148" d="M272.216,439s-7.162,8.067-22.916,5.465C249.3,444.469,259.754,454.832,272.216,439Z" transform="translate(-165.898 -369.095)" fill="#fff" opacity="0.24"/>
    <path id="Path_2149" data-name="Path 2149" d="M85.445,304.639a17.028,17.028,0,0,1-2.239,8.947,13.99,13.99,0,0,1-6.609,5.638,26.6,26.6,0,0,1-10.636,1.9,23.368,23.368,0,0,1-10.248-2.065,15.027,15.027,0,0,1-6.3-5.2,11.388,11.388,0,0,1-2.032-6.262,5.209,5.209,0,0,1,1.3-3.56,4.2,4.2,0,0,1,3.3-1.479,3.544,3.544,0,0,1,2.672.971,10.7,10.7,0,0,1,1.793,2.726,13.29,13.29,0,0,0,4.085,5.039,11.08,11.08,0,0,0,6.485,1.652,8.553,8.553,0,0,0,5.473-1.689,4.871,4.871,0,0,0,2.135-3.858,5.47,5.47,0,0,0-2.218-4.853,25.252,25.252,0,0,0-7.3-2.9,55.115,55.115,0,0,1-9.335-3.4,15.6,15.6,0,0,1-5.754-4.692,11.7,11.7,0,0,1-2.156-7.162,13.864,13.864,0,0,1,2-7.168,14.193,14.193,0,0,1,5.873-5.368,20.238,20.238,0,0,1,9.376-2.012,27.286,27.286,0,0,1,7.745,1.02,18.173,18.173,0,0,1,5.737,2.726,12.669,12.669,0,0,1,3.494,3.792,8.1,8.1,0,0,1,1.2,4.064,5.056,5.056,0,0,1-1.28,3.561,4.709,4.709,0,0,1-3.643,1.388,4.13,4.13,0,0,1-2.891-1.111,20.935,20.935,0,0,1-2.743-3.325A10.553,10.553,0,0,0,69.762,279a8.4,8.4,0,0,0-4.634-1.107,8.261,8.261,0,0,0-5,1.454,4.356,4.356,0,0,0-2,3.631,4.131,4.131,0,0,0,1.466,3.259,11.538,11.538,0,0,0,3.945,2.1q2.478.826,6.832,2.032a34.024,34.024,0,0,1,8.439,3.424,14.623,14.623,0,0,1,4.957,4.688A11.437,11.437,0,0,1,85.445,304.639Z" transform="translate(-47.38 -269.81)" fill="#00b7f1"/>
    <path id="Path_2150" data-name="Path 2150" d="M403.257,298.635c-6.844.533-17.014.438-17.014.05a18.376,18.376,0,0,0,1.545,7.58,11.521,11.521,0,0,0,4,4.957,9.707,9.707,0,0,0,5.5,1.652,12.077,12.077,0,0,0,3.689-.529,11.369,11.369,0,0,0,3.234-1.652,25.2,25.2,0,0,0,2.891-2.429q1.318-1.289,3.42-3.511a3.441,3.441,0,0,1,2.478-.826,3.817,3.817,0,0,1,2.8,1.066,4.06,4.06,0,0,1,1.07,3,8.921,8.921,0,0,1-1.194,4,15.326,15.326,0,0,1-3.61,4.395,19.8,19.8,0,0,1-6.059,3.486,23.462,23.462,0,0,1-8.385,1.388q-10.843,0-16.861-6.935t-6.018-18.811a34.816,34.816,0,0,1,1.487-10.38,23.546,23.546,0,0,1,4.325-8.2,18.769,18.769,0,0,1,7.022-5.246,22.718,22.718,0,0,1,9.232-1.83,19.99,19.99,0,0,1,11.314,3.123c6.229,4.131,10.595,13.011,7.708,19.98a8.625,8.625,0,0,1-6.563,5.176C408.722,298.189,406.33,298.416,403.257,298.635Zm-14.911-7.15c4.007,0,12.392-.083,16.258-.049,1.239,0,1.859-1.9,1.859-1.908a20.822,20.822,0,0,0-.62-3.061,12.368,12.368,0,0,0-2.309-4.63,8.838,8.838,0,0,0-7.113-3.214,8.571,8.571,0,0,0-6.9,3.271,14.992,14.992,0,0,0-3.015,7.666,1.76,1.76,0,0,0,1.842,1.925Z" transform="translate(-239.528 -269.816)" fill="#00b7f1"/>
  </g>
</svg>
