<svg xmlns="http://www.w3.org/2000/svg" width="21.62" height="20.268" viewBox="0 0 21.62 20.268">
  <g id="chat" opacity="0.66">
    <g id="Group_2450" data-name="Group 2450" transform="translate(0 0)">
      <path id="Path_2178" data-name="Path 2178" d="M10.768,16C4.83,16,0,20.262,0,25.5a8.854,8.854,0,0,0,2.47,6.057,3.852,3.852,0,0,1-1.018,3.629A.634.634,0,0,0,1.9,36.268a6.984,6.984,0,0,0,4.838-1.954,11.944,11.944,0,0,0,4.03.687C16.7,35,21.62,30.74,21.62,25.5S16.7,16,10.768,16ZM5.785,27.4a1.9,1.9,0,1,1,1.9-1.9A1.9,1.9,0,0,1,5.785,27.4Zm5.067,0a1.9,1.9,0,1,1,1.9-1.9A1.9,1.9,0,0,1,10.852,27.4Zm5.067,0a1.9,1.9,0,1,1,1.9-1.9A1.9,1.9,0,0,1,15.919,27.4Z" transform="translate(0 -16)" fill="#4a4a4a"/>
    </g>
  </g>
</svg>
