<svg xmlns="http://www.w3.org/2000/svg" width="24.47" height="19.474" viewBox="0 0 24.47 19.474">
  <g id="Group_2451" data-name="Group 2451" transform="translate(-54 -747.656)">
    <g id="home" transform="translate(49 747.656)">
      <g id="Group_2447" data-name="Group 2447" transform="translate(5 0)">
        <path id="Path_2175" data-name="Path 2175" d="M74.441,120.939l-8.727,7.195a.206.206,0,0,1-.008.045.209.209,0,0,0-.008.045v7.285a.986.986,0,0,0,.971.972H72.5v-5.828h3.886v5.829h5.828a.987.987,0,0,0,.972-.972v-7.285a.214.214,0,0,0-.015-.091Z" transform="translate(-62.205 -117.008)" fill="#00b7eb"/>
        <path id="Path_2176" data-name="Path 2176" d="M24.3,56.48l-3.324-2.762V47.525a.468.468,0,0,0-.486-.486H17.577a.467.467,0,0,0-.486.486v2.96l-3.7-3.1a1.883,1.883,0,0,0-2.307,0L.168,56.48A.441.441,0,0,0,0,56.807a.492.492,0,0,0,.106.357l.941,1.123a.518.518,0,0,0,.319.167.564.564,0,0,0,.364-.106l10.5-8.758,10.5,8.758a.468.468,0,0,0,.319.106H23.1a.518.518,0,0,0,.319-.167l.941-1.123a.491.491,0,0,0,.106-.357A.442.442,0,0,0,24.3,56.48Z" transform="translate(0.001 -46.994)" fill="#00b7eb"/>
      </g>
    </g>
  </g>
</svg>
