<svg xmlns="http://www.w3.org/2000/svg" width="15.264" height="17.022" viewBox="0 0 15.264 17.022">
  <path id="notification-filled" d="M18.459,12.454l-1.585-1.585v-2.7A5.911,5.911,0,0,0,11.591,2.3V1.125H10.417V2.3a5.958,5.958,0,0,0-5.283,5.87v2.7L3.55,12.454a.534.534,0,0,0-.176.411v1.761a.551.551,0,0,0,.587.587H8.07a2.935,2.935,0,0,0,5.87,0h4.109a.551.551,0,0,0,.587-.587V12.864A.534.534,0,0,0,18.459,12.454ZM11,16.973a1.761,1.761,0,0,1-1.761-1.761h3.522A1.761,1.761,0,0,1,11,16.973Z" transform="translate(-3.373 -1.125)" fill="#878787"/>
</svg>
